<svg width="16" height="15" viewBox="0 0 16 15" fill="none" xmlns="http://www.w3.org/2000/svg">
<g clip-path="url(#clip0)">
<path d="M7.25 6.73438C7.25 6.53546 7.32902 6.3447 7.46967 6.20405C7.61032 6.06339 7.80109 5.98438 8 5.98438C8.19891 5.98438 8.38968 6.06339 8.53033 6.20405C8.67098 6.3447 8.75 6.53546 8.75 6.73438V11.2344C8.75 11.4333 8.67098 11.6241 8.53033 11.7647C8.38968 11.9054 8.19891 11.9844 8 11.9844C7.80109 11.9844 7.61032 11.9054 7.46967 11.7647C7.32902 11.6241 7.25 11.4333 7.25 11.2344V6.73438Z" fill="#BDBDBD"/>
<path d="M8 3.03906C7.80109 3.03906 7.61032 3.11808 7.46967 3.25873C7.32902 3.39938 7.25 3.59015 7.25 3.78906C7.25 3.98797 7.32902 4.17874 7.46967 4.31939C7.61032 4.46004 7.80109 4.53906 8 4.53906C8.19891 4.53906 8.38968 4.46004 8.53033 4.31939C8.67098 4.17874 8.75 3.98797 8.75 3.78906C8.75 3.59015 8.67098 3.39938 8.53033 3.25873C8.38968 3.11808 8.19891 3.03906 8 3.03906Z" fill="#BDBDBD"/>
<path fill-rule="evenodd" clip-rule="evenodd" d="M8 0C3.85775 0 0.5 3.35775 0.5 7.5C0.5 11.6423 3.85775 15 8 15C12.1423 15 15.5 11.6423 15.5 7.5C15.5 3.35775 12.1423 0 8 0ZM2 7.5C2 9.0913 2.63214 10.6174 3.75736 11.7426C4.88258 12.8679 6.4087 13.5 8 13.5C9.5913 13.5 11.1174 12.8679 12.2426 11.7426C13.3679 10.6174 14 9.0913 14 7.5C14 5.9087 13.3679 4.38258 12.2426 3.25736C11.1174 2.13214 9.5913 1.5 8 1.5C6.4087 1.5 4.88258 2.13214 3.75736 3.25736C2.63214 4.38258 2 5.9087 2 7.5Z" fill="#BDBDBD"/>
</g>
<defs>
<clipPath id="clip0">
<rect width="15" height="15" fill="white" transform="translate(0.5)"/>
</clipPath>
</defs>
</svg>
